<svg x="0px" y="0px" width="44px" height="54px" xmlns="http://www.w3.org/2000/svg" viewBox="0 0 44 54" fill="#f3e2d4">
    <path d="M37,15.85l1.41-1.72a5.65,5.65,0,0,0,1.33,1,1.07,1.07,0,0,0,1.54-.22A1.18,1.18,0,0,0,41,13.34L36.19,9.81a1.16,1.16,0,0,0-1.54.22,1.18,1.18,0,0,0,.22,1.54l1.74,1.27-1.31,1.6a21.75,21.75,0,0,0-8.9-4.07V6.62h2.2a1.11,1.11,0,0,0,1.1-1.11V1.11A1,1,0,0,0,28.6,0H15.4a1,1,0,0,0-1.1,1.11v4.4a1,1,0,0,0,1.1,1.11h2.75v3.65a21.65,21.65,0,0,0-9.4,4.13L7.44,12.8l1.69-1.23A1.18,1.18,0,0,0,9.35,10a1.18,1.18,0,0,0-1.54-.22L3,13.34a1.18,1.18,0,0,0-.22,1.54,1,1,0,0,0,1.54.22c0.65-.44,1.17-0.85,1.39-1l1.4,1.71A22,22,0,1,0,37,15.85ZM16.5,4.41V2.21h11v2.2h-11Zm7.7,2.21V10C23.48,10,22.74,9.92,22,9.92c-0.56,0-1.11,0-1.65.07V6.62H24.2ZM22,51.8A19.84,19.84,0,1,1,41.8,32,19.88,19.88,0,0,1,22,51.8Z" />
    <path d="M31.35,22.59a1.06,1.06,0,0,0-1.54,0l-8.58,8.6a1.09,1.09,0,0,0,1.54,1.54l8.58-8.59A1.08,1.08,0,0,0,31.35,22.59Z" />
    <circle cx="22" cy="14.88" r="1.18" />
    <circle cx="22" cy="49.05" r="1.18" />
    <circle cx="4.95" cy="31.96" r="1.18" />
    <circle cx="39.05" cy="31.9" r="1.18" />
    <circle cx="36.63" cy="23.4" r="1.18" />
    <circle cx="7.15" cy="23.44" r="1.18" />
    <circle cx="13.35" cy="17.23" r="1.18" />
    <circle cx="30.55" cy="17.23" r="1.18" />
    <circle cx="36.63" cy="40.54" r="1.18" />
    <circle cx="7.15" cy="40.54" r="1.18" />
    <circle cx="13.35" cy="46.68" r="1.18" />
    <circle cx="30.55" cy="46.68" r="1.18" />
</svg>