<svg x="0px" y="0px" width="80px" height="72px" xmlns="http://www.w3.org/2000/svg" viewBox="0 0 80 72" fill="#f9b030">
                <path d="M62.48,31.74a32.63,32.63,0,0,0-5.14-5.44,1.35,1.35,0,0,1-.17-1.91,1.37,1.37,0,0,1,1.92-.17,29.79,29.79,0,0,1,5.71,6,1.32,1.32,0,0,1-.22,1.86l0,0A1.54,1.54,0,0,1,62.48,31.74Zm-9.79-6.39a1.23,1.23,0,0,1-.95-0.41,1.32,1.32,0,0,1,0-1.88l0,0a11.66,11.66,0,0,0,3.8-8.57,11.42,11.42,0,0,0-22.84,0A10.15,10.15,0,0,0,34,19.63a1.32,1.32,0,0,1-.35,1.84l-0.16.09a1.34,1.34,0,0,1-1.84-.42L31.62,21A13.67,13.67,0,0,1,30,14.5a14.14,14.14,0,0,1,28.27-.86q0,0.43,0,.86A14.35,14.35,0,0,1,53.65,25a1.23,1.23,0,0,1-.95.38h0Z" />
                <path d="M45.5,13.29V9.9c1.79,0.21,2.17.92,2.17,1a1.48,1.48,0,0,0,1.67,1,1.33,1.33,0,0,0,1.1-1.52l0-.11c-0.12-.25-0.71-2.65-4.9-3.08V6.73a1.33,1.33,0,0,0-2.67,0V7.28a4.81,4.81,0,0,0-4.35,4.62c0,2,1.71,3.53,4.35,4v3.26a5.27,5.27,0,0,1-1.76-1,1.38,1.38,0,0,0-2.59.94,6.06,6.06,0,0,0,4.36,2.65,1.33,1.33,0,0,0,2.67.07c2.88-.41,4.79-2.27,4.9-4.54C50.38,15.57,49.46,13.61,45.5,13.29Zm-2.67-.21A1.75,1.75,0,0,1,41.2,11.9a2,2,0,0,1,1.63-1.83v3Zm2.67,6.18V16c2.17,0.19,2.17,1,2.17,1.33A2.38,2.38,0,0,1,45.5,19.26Z" />
                <circle cx="18.31" cy="37.73" r="2.72" />
                <path d="M53.34,72H40a1.23,1.23,0,0,1-1.09-.54,1.32,1.32,0,0,1-.27-1.22l0.81-3.4a29.83,29.83,0,0,1-6,.27L32,71.17a1.19,1.19,0,0,1-1.23.81h-14a1.23,1.23,0,0,1-1.09-.54,1.12,1.12,0,0,1-.27-1.09l1.87-8.42A35,35,0,0,1,12,57.3a28.85,28.85,0,0,1-5.84-.41,5.79,5.79,0,0,1-4.08-3.13A17.43,17.43,0,0,1,.38,41.93c0.68-2.59,3.8-3.68,6.79-4.07a30.65,30.65,0,0,1,1.91-6c-6.43-5.7-5.44-7.75-5.18-8.56C5.23,20.05,15,18.16,22.11,19.79A25.83,25.83,0,0,1,27,18.16a1.34,1.34,0,1,1,.68,2.59,24.46,24.46,0,0,0-4.76,1.63,2.31,2.31,0,0,1-.95.13c-7.07-1.63-15,.68-15.64,1.9,0,0.41.81,2.31,5.16,6A1.12,1.12,0,0,1,11.82,32l0,0.07a20.6,20.6,0,0,0-2.29,7.06,1.19,1.19,0,0,1-1.23,1.06c-3.12.27-5.16,1.22-5.44,2.18C2.26,44.49,2.39,49.26,4.14,52a4.26,4.26,0,0,0,2.31,1.9,30.18,30.18,0,0,0,6,.41,1.23,1.23,0,0,1,1.09.54A25.63,25.63,0,0,0,19.67,60a1.51,1.51,0,0,1,.55,1.5l-1.76,7.79H29.86l1.63-4.22A1.34,1.34,0,0,1,33,64.3a24.26,24.26,0,0,0,3.12.27c1.69,0,4-.54,5.16-0.54a1.33,1.33,0,0,1,1.52,1.11,1.32,1.32,0,0,1,0,.52l-0.95,3.81H52.69c4.9-6.63,12.91-18.57,12.91-27.18a1.33,1.33,0,0,1,2.67,0A21.44,21.44,0,0,1,66.68,50C65.05,57.71,55,71,54.45,71.57a1.18,1.18,0,0,1-1.11.41h0ZM64,38.27a1.33,1.33,0,1,1,.27-2.65c1.23,0,4.35-.13,6.11-1.5a5.51,5.51,0,0,1-3-2.85,5,5,0,0,1,.13-5.16,3.52,3.52,0,0,1,3.67-1.33c1.09,0.27,2.85,1.5,3.27,6v1.33a2.9,2.9,0,0,0,2-1,6.11,6.11,0,0,0,.55-4.76,1.36,1.36,0,0,1,2.67-.54c0.13,0.41.95,4.48-1.09,7.07a5.65,5.65,0,0,1-5,1.94C72.3,36.16,71.15,38.27,64,38.27Zm5.34-10.61a3.1,3.1,0,0,0,.19,2.41,3.34,3.34,0,0,0,1.91,1.63V30.93c-0.09-2-1-4.33-2.09-3.24v0Z" />
                <path d="M48.75,29.43C43.19,25,33,26.87,32.85,26.87a1.35,1.35,0,1,1-.55-2.65c0.41-.13,11.55-2,18.08,3.13a1.47,1.47,0,0,1,.27,1.9,1.34,1.34,0,0,1-1.88.2Z" />
</svg>