 <svg x="0px" y="0px" width="72px" height="72px" xmlns="http://www.w3.org/2000/svg" viewBox="0 0 72 72" fill="#f9b030">
                <path d="M50.4,47.52H31.73a1.44,1.44,0,1,1,0-2.88H49.07V41.76H37.44a1.44,1.44,0,1,1,0-2.88h13a1.33,1.33,0,0,1,1.44,1.44v5.76A1.44,1.44,0,0,1,50.4,47.52Zm-30.24,0H15.84a1.33,1.33,0,0,1-1.44-1.44V40.32a1.33,1.33,0,0,1,1.22-1.44h10.3a1.44,1.44,0,1,1,0,2.88H17.33v2.88h2.88a1.33,1.33,0,0,1,1.44,1.44,1.44,1.44,0,0,1-1.44,1.44H20.16Zm35.71-2.88a0.87,0.87,0,0,1-.57-0.15,1.49,1.49,0,0,1-.87-1.87,5.83,5.83,0,0,0-1.73-6.91,7.07,7.07,0,0,1-2.88-6.67c0.29-2.45,1.59-4.89,3.17-5.61a1.4,1.4,0,0,1,1.33,2.45h0a4.63,4.63,0,0,0-1.59,3.31,4.43,4.43,0,0,0,1.73,4c4.17,3.17,3.45,8,2.59,10.37a1.09,1.09,0,0,1-1.12,1.07H55.87Z" />
                <path d="M36,0A36,36,0,1,0,72,36,36,36,0,0,0,36,0ZM2.88,36A33.12,33.12,0,0,1,58.39,11.6L11.6,58.39A33,33,0,0,1,2.88,36ZM36,69.12A33,33,0,0,1,13.61,60.4L60.4,13.61A33.12,33.12,0,0,1,36,69.12Z" />
</svg>