<svg x="0px" y="0px" width="54px" height="54px" xmlns="http://www.w3.org/2000/svg" viewBox="0 0 54 54" fill="#f3e2d4">
    <path d="M37.8,35.64h-14a1.08,1.08,0,1,1,0-2.16h13V31.32H28.08a1.08,1.08,0,1,1,0-2.16H37.8a1,1,0,0,1,1.08,1.08v4.32A1.08,1.08,0,0,1,37.8,35.64Zm-22.68,0H11.88a1,1,0,0,1-1.08-1.08V30.24a1,1,0,0,1,1.08-1.08h7.56a1.08,1.08,0,1,1,0,2.16H13v2.16h2.16a1,1,0,0,1,1.08,1.08A1.08,1.08,0,0,1,15.12,35.64ZM41.9,33.48a0.65,0.65,0,0,1-.43-0.11,1.12,1.12,0,0,1-.65-1.4,4.37,4.37,0,0,0-1.3-5.18,5.3,5.3,0,0,1-2.16-5c0.22-1.84,1.19-3.67,2.38-4.21a1,1,0,1,1,1,1.84,3.47,3.47,0,0,0-1.19,2.48,3.32,3.32,0,0,0,1.3,3c3.13,2.38,2.59,6,1.94,7.78A0.82,0.82,0,0,1,41.9,33.48Z" />
    <path d="M27,0A27,27,0,1,0,54,27,27,27,0,0,0,27,0ZM2.16,27A24.84,24.84,0,0,1,43.79,8.7L8.7,43.79A24.73,24.73,0,0,1,2.16,27ZM27,51.84A24.73,24.73,0,0,1,10.21,45.3L45.3,10.21A24.84,24.84,0,0,1,27,51.84Z" />
</svg>