<svg x="0px" y="0px" width="72px" height="72px" xmlns="http://www.w3.org/2000/svg" viewBox="0 0 72 72" fill="#f9b030">
                <path d="M32.77,25.13c-1,0-1.76-.15-2.06-0.15a1.56,1.56,0,0,1-1.32-1.47V11.31a1.45,1.45,0,0,1,1.32-1.47c0.44,0,3.67-.29,5.73,1.62a4,4,0,0,1,1.32,3.09,3.59,3.59,0,0,1-.88,2.64,4.35,4.35,0,0,1,1.91,4,3.68,3.68,0,0,1-1.18,2.64A8.36,8.36,0,0,1,32.77,25.13Zm-0.44-2.94c1.76,0,3.88.13,3.92-1.21,0.05-1.76-1.72-1.88-3.92-1.88v3.09Zm0-9.4V16c1.11,0,2.5-.34,2.5-1.47C34.82,13.25,33.59,13,32.33,12.78ZM22.78,25a5,5,0,0,1-5.14-5.14V15a5,5,0,0,1,5.14-5.14A5,5,0,0,1,27.92,15v4.85A5,5,0,0,1,22.78,25Zm0-12.2a2.26,2.26,0,0,0-2.2,2.2v4.85a2.2,2.2,0,1,0,4.41,0V15A2.26,2.26,0,0,0,22.78,12.78ZM11.31,25.13a4.81,4.81,0,0,1-4.41-3.23,1.45,1.45,0,0,1,2.64-1.18,2,2,0,0,0,1.76,1.47A1.92,1.92,0,0,0,13.22,20V13.22H11.76a1.39,1.39,0,0,1-1.47-1.47,1.39,1.39,0,0,1,1.47-1.47h2.94a1.39,1.39,0,0,1,1.47,1.47V20A4.87,4.87,0,0,1,11.31,25.13Z" />
                <path d="M63,72H8.23C3.53,72,0,67.15,0,62.89V7.79A7.69,7.69,0,0,1,7.49,0H48.2c4.26,0,9.11,3.23,9.11,7.79V62.45a8.38,8.38,0,0,0,1.76,5.14,4.9,4.9,0,0,0,4,1.47c2.79,0,6-3.38,6-6.17v-32a2.2,2.2,0,0,0-4.41,0V61.71a1.47,1.47,0,0,1-2.94,0V30.86a5.14,5.14,0,0,1,10.29,0v32C72,67.3,67.44,72,63,72ZM7.49,2.94A4.74,4.74,0,0,0,2.94,7.79v55.1c0,2.79,2.35,6.17,5.29,6.17h48.2a11,11,0,0,1-2.06-6.61V7.79c0-2.79-3.23-4.85-6.17-4.85H7.49Z" />
                <path d="M44.82,25a5,5,0,0,1-5-5.14,1.47,1.47,0,1,1,2.94,0A2,2,0,0,0,44.82,22,2.21,2.21,0,0,0,46.87,20a15.94,15.94,0,0,0-3.23-1.76c-2.35-1-4-1.76-4-3.38a5,5,0,0,1,5-5.14,5.08,5.08,0,0,1,5,5.14,1.47,1.47,0,1,1-2.94,0,2.13,2.13,0,0,0-2.06-2.2,2.06,2.06,0,0,0-2.06,1.76,15.78,15.78,0,0,0,2.2,1c2.5,1.18,5,2.2,5,4.26A5.12,5.12,0,0,1,44.82,25ZM19.1,32.33H10.29a1.47,1.47,0,1,1,0-2.94H19.1a1.39,1.39,0,0,1,1.47,1.47A1.47,1.47,0,0,1,19.1,32.33ZM25,36.73H10.29a1.47,1.47,0,1,1,0-2.94H25a1.39,1.39,0,0,1,1.47,1.47A1.47,1.47,0,0,1,25,36.73Zm-1.47,4.41H10.29a1.47,1.47,0,1,1,0-2.94H23.51A1.39,1.39,0,0,1,25,39.67,1.47,1.47,0,0,1,23.51,41.14ZM41.14,54.37H32.33a1.47,1.47,0,1,1,0-2.94h8.82a1.39,1.39,0,0,1,1.47,1.47A1.47,1.47,0,0,1,41.14,54.37ZM47,58.78H32.33a1.47,1.47,0,1,1,0-2.94H47a1.39,1.39,0,0,1,1.47,1.47A1.47,1.47,0,0,1,47,58.78Zm-1.47,4.41H32.33a1.47,1.47,0,0,1,0-2.94H45.55A1.39,1.39,0,0,1,47,61.71,1.47,1.47,0,0,1,45.55,63.18ZM42.61,32.33H32.33a1.47,1.47,0,0,1,0-2.94H42.61a1.39,1.39,0,0,1,1.47,1.47A1.47,1.47,0,0,1,42.61,32.33ZM47,36.73H32.33a1.47,1.47,0,1,1,0-2.94H47a1.39,1.39,0,0,1,1.47,1.47A1.47,1.47,0,0,1,47,36.73Zm0,8.82H32.33a1.47,1.47,0,1,1,0-2.94H47a1.39,1.39,0,0,1,1.47,1.47A1.47,1.47,0,0,1,47,45.55Zm-1.47-4.41H32.33a1.47,1.47,0,1,1,0-2.94H45.55A1.39,1.39,0,0,1,47,39.67,1.47,1.47,0,0,1,45.55,41.14ZM20.57,50H10.29a1.47,1.47,0,1,1,0-2.94H20.57A1.39,1.39,0,0,1,22,48.49,1.47,1.47,0,0,1,20.57,50ZM25,54.37H10.29a1.47,1.47,0,1,1,0-2.94H25a1.39,1.39,0,0,1,1.47,1.47A1.47,1.47,0,0,1,25,54.37Zm0,8.82H10.29a1.47,1.47,0,1,1,0-2.94H25a1.39,1.39,0,0,1,1.47,1.47A1.47,1.47,0,0,1,25,63.18Zm-1.47-4.41H10.29a1.47,1.47,0,1,1,0-2.94H23.51A1.39,1.39,0,0,1,25,57.31,1.47,1.47,0,0,1,23.51,58.78Z" />
</svg>