<svg x="0px" y="0px" width="60px" height="54px" xmlns="http://www.w3.org/2000/svg" viewBox="0 0 60 54" fill="#f3e2d4">
    <path d="M46.85,23.67A24.54,24.54,0,0,0,43,19.57,1,1,0,0,1,44.31,18a22.4,22.4,0,0,1,4.28,4.51,1,1,0,0,1-.2,1.43A1.15,1.15,0,0,1,46.85,23.67Zm-7.34-4.82a0.92,0.92,0,0,1-.71-0.31,1,1,0,0,1,0-1.43,8.81,8.81,0,0,0,2.85-6.46,8.56,8.56,0,1,0-17.12,0,7.68,7.68,0,0,0,1,3.89A1,1,0,0,1,25.15,16a1,1,0,0,1-1.43-.41,10.35,10.35,0,0,1-1.22-4.92,10.6,10.6,0,1,1,21.19,0,10.84,10.84,0,0,1-3.46,7.89A0.92,0.92,0,0,1,39.52,18.85Z" />
    <path d="M34.12,9.76V7.21c1.34,0.16,1.63.69,1.63,0.78A1.11,1.11,0,0,0,37,8.71a1,1,0,0,0,.81-1.23c-0.09-.19-0.53-2-3.67-2.32V4.82a1,1,0,1,0-2,0V5.23a3.62,3.62,0,0,0-3.26,3.48c0,1.54,1.28,2.66,3.26,3v2.46a3.94,3.94,0,0,1-1.32-.72,1,1,0,1,0-1.94.71,4.54,4.54,0,0,0,3.27,2,1,1,0,0,0,2,.05c2.16-.31,3.59-1.71,3.67-3.42C37.78,11.48,37.09,10,34.12,9.76Zm-2-.16a1.31,1.31,0,0,1-1.22-.89,1.5,1.5,0,0,1,1.22-1.38V9.6Zm2,4.66V11.82c1.63,0.14,1.63.73,1.63,1A1.79,1.79,0,0,1,34.12,14.26Z" />
    <ellipse cx="13.74" cy="28.18" rx="2.04" ry="2.05" />
    <path d="M40,54H30a0.92,0.92,0,0,1-.82-0.41,1,1,0,0,1-.2-0.92l0.61-2.56a22.24,22.24,0,0,1-4.48.2L24,53.39a0.89,0.89,0,0,1-.92.61H12.62a0.92,0.92,0,0,1-.82-0.41,0.85,0.85,0,0,1-.2-0.82L13,46.42A26.24,26.24,0,0,1,9,42.93a21.51,21.51,0,0,1-4.38-.31,4.34,4.34,0,0,1-3.06-2.36A13.2,13.2,0,0,1,.3,31.35c0.51-1.95,2.85-2.77,5.09-3.07a23.19,23.19,0,0,1,1.43-4.51C2,19.47,2.74,17.93,2.94,17.32c1-2.46,8.35-3.89,13.65-2.66a19.29,19.29,0,0,1,3.67-1.23,1,1,0,0,1,.51,1.95,18.27,18.27,0,0,0-3.57,1.23,1.72,1.72,0,0,1-.71.1c-5.3-1.23-11.21.51-11.72,1.43,0,0.31.61,1.74,3.87,4.51a0.85,0.85,0,0,1,.2,1.23A15.59,15.59,0,0,0,7.12,29.2,0.89,0.89,0,0,1,6.2,30c-2.34.2-3.87,0.92-4.08,1.64-0.41,1.64-.31,5.23,1,7.28a3.2,3.2,0,0,0,1.73,1.43,22.5,22.5,0,0,0,4.48.31,0.92,0.92,0,0,1,.82.41A19.24,19.24,0,0,0,14.76,45a1.14,1.14,0,0,1,.41,1.13L13.85,52H22.4l1.22-3.18a1,1,0,0,1,1.12-.61,18.09,18.09,0,0,0,2.34.2c1.27,0,3-.41,3.87-0.41a1,1,0,0,1,1.12,1.23l-0.71,2.87h8.15c3.67-5,9.68-14,9.68-20.49a1,1,0,1,1,2,0A16.24,16.24,0,0,1,50,37.4c-1.22,5.84-8.76,15.88-9.17,16.29A0.88,0.88,0,0,1,40,54h0ZM48,28.59a1,1,0,0,1,.2-2c0.92,0,3.26-.1,4.58-1.13a4.14,4.14,0,0,1-2.24-2.15,3.79,3.79,0,0,1,.1-3.89,2.63,2.63,0,0,1,2.75-1c0.82,0.2,2.14,1.13,2.45,4.51v1a2.17,2.17,0,0,0,1.53-.72,4.63,4.63,0,0,0,.41-3.59,1,1,0,1,1,2-.41c0.1,0.31.71,3.38-.82,5.33A4.22,4.22,0,0,1,55.21,26C54.21,27,53.35,28.59,48,28.59Zm4-8a2.35,2.35,0,0,0,.14,1.82,2.51,2.51,0,0,0,1.43,1.23V23.06C53.5,21.57,52.81,19.8,52,20.62Z" />
    <path d="M36.56,21.93C32.39,18.55,24.75,20,24.64,20a1,1,0,0,1-.41-2c0.31-.1,8.66-1.54,13.55,2.36a1.11,1.11,0,0,1,.2,1.43A1,1,0,0,1,36.56,21.93Z" />
</svg>