 <svg x="0px" y="0px" width="15px" height="25px" xmlns="http://www.w3.org/2000/svg" viewBox="0 0 30 53">
          <path class="cls-1" d="M15,0A15,15,0,0,0,0,15V38a15,15,0,0,0,30,0V15A15,15,0,0,0,15,0ZM28.21,38A13.21,13.21,0,0,1,1.79,38V15a13.21,13.21,0,0,1,26.41,0V38Z" />
          <path class="cls-1" d="M15.13,18.61H14.87a1.27,1.27,0,0,1-1.28-1.28V13a1.28,1.28,0,0,1,1.28-1.28h0.26A1.27,1.27,0,0,1,16.41,13v4.3A1.29,1.29,0,0,1,15.13,18.61Zm4.46,18.18-4.59,4-4.64-4a0.89,0.89,0,1,1,1.15-1.36l2.56,2.2V29.29a0.9,0.9,0,0,1,1.79,0v8.35l2.56-2.2a0.89,0.89,0,1,1,1.15,1.36h0Z" />
</svg>