<svg x="0px" y="0px" width="70px" height="70px" xmlns="http://www.w3.org/2000/svg" viewBox="0 0 70 70" fill="#f9b030">
                <path d="M35,70A35,35,0,1,1,70,35,35,35,0,0,1,35,70ZM35,2.89A32.11,32.11,0,1,0,67.11,35,32.15,32.15,0,0,0,35,2.89Z" />
                <path d="M26.67,48.8V46.66L29.39,44c6.56-6.22,9.51-9.55,9.55-13.42,0-2.62-1.26-5-5.1-5a8.77,8.77,0,0,0-5.44,2.17l-1.09-2.45a11.23,11.23,0,0,1,7.27-2.62c5.5,0,7.85,3.77,7.85,7.44,0,4.72-3.43,8.56-8.83,13.76l-2,1.9v0.07H43.09v2.89H26.67v0Z" />
</svg>