 <svg x="0px" y="0px" width="70px" height="70px" xmlns="http://www.w3.org/2000/svg" viewBox="0 0 70 70" fill="#f9b030">
                <path d="M35,70A35,35,0,1,1,70,35,35,35,0,0,1,35,70ZM35,2.89A32.11,32.11,0,1,0,67.11,35,32.15,32.15,0,0,0,35,2.89Z" />
                <path d="M27.49,44.82a11.39,11.39,0,0,0,5.67,1.63c4.45,0,5.84-2.85,5.81-5,0-3.6-3.26-5.13-6.63-5.13H30.41V33.74h1.94c2.51,0,5.71-1.29,5.71-4.35,0-2-1.29-3.87-4.49-3.87a9.58,9.58,0,0,0-5.13,1.7L27.52,24.7a12.13,12.13,0,0,1,6.69-2c5.06,0,7.34,3,7.34,6.12,0,2.65-1.56,4.89-4.72,6V35c3.16,0.65,5.71,3,5.71,6.59,0,4.11-3.19,7.68-9.34,7.68a13.1,13.1,0,0,1-6.66-1.73Z" />
</svg>