<svg x="0px" y="0px" width="80px" height="72px" xmlns="http://www.w3.org/2000/svg" viewBox="0 0 80 72" fill="#f9b030">
    <path d="M80,69.84l-5.76-20.4a1.42,1.42,0,0,0-1.28-1.11,1.69,1.69,0,0,0-1.6.63L57.57,66.81,52.93,49.6a1.33,1.33,0,0,0-1.12-1.11,1.46,1.46,0,0,0-1.6.47L32.93,69.36a1.59,1.59,0,1,0,2.4,2.08l15.36-18L55.33,70.8a1.83,1.83,0,0,0,1.28,1.12,1.53,1.53,0,0,0,1.6-.64L72,53.43s4.72,16.6,5,17.37a1.68,1.68,0,0,0,2,1.06A1.9,1.9,0,0,0,80,69.84Z" />
    <path d="M67,16C65,9.5,41.82-2.12,37.09.33A3.73,3.73,0,0,0,35,2.88c-0.64,2.24.64,5.58,4,9.89A2.9,2.9,0,0,1,39.17,16a3.51,3.51,0,0,1-3.84,1.44C33.09,17.08,24.13,16,24.13,16a1.65,1.65,0,0,0-1.76,1.76c0.16,5.74-1,12.16-1.76,17.38-1.12,6.86-1.92,12-5.28,16.25-1.76,2.39-4.8,4-7.68,5.58C4.3,58.85,1.07,60.58.3,63.47c-1.33,5,2.08,8.33,4.64,8.45,0.8,0,18.56-1.28,25.12-5.58,6.4-4,33.28-41.29,36.48-46.71A3.79,3.79,0,0,0,67,16ZM3.29,65.74a3.4,3.4,0,0,1,0-1.64c0.32-1.44,3-2.87,5.76-4.47,3-1.6,6.4-3.5,8.64-6.38a25.53,25.53,0,0,0,4.65-10.62s10.32,4.89,10.87,5.2a1.59,1.59,0,0,0,2.08-.79,1.55,1.55,0,0,0-.8-2.08C33.76,44.59,23,39.46,23,39.46q0.19-1.16.39-2.38S36.15,43,36.61,43.23a1.66,1.66,0,0,0,2.08-.8,1.58,1.58,0,0,0-.8-2.07c-0.8-.32-14-6.52-14-6.52l0.23-1.62,0.12-.72s15.1,6.91,15.56,7.1a1.54,1.54,0,0,0,2.08-.79,1.56,1.56,0,0,0-.8-2.08c-0.8-.32-16.36-7.47-16.36-7.47a70.6,70.6,0,0,0,.68-8.62c10.51,1.2,14.1,2,16.64-1.92a6.34,6.34,0,0,0-.48-6.7c-1.11-1.49-4.81-6.78-3.2-7.65C40.14,2.41,41.22,3,49,6.65h0A1.58,1.58,0,0,0,50.55,8a1.51,1.51,0,0,0,.79-0.22,61.77,61.77,0,0,1,9.15,5.51C60,14,57.55,17.91,54,23.19a1.58,1.58,0,0,0-1.3,1.95C43.89,38.29,29.94,58,23.65,60.92,20,62.61,7.65,65,3.29,65.74ZM63.65,18.2c-3.84,6.38-30.08,42.4-35.52,45.75-4.24,2.66-17,4.09-22.42,4.44,5.46-1,15.72-3.11,19.38-4.76,5.6-2.55,21-22.8,23-25.82C50.69,34,59.95,20,62.91,15.55a4.68,4.68,0,0,1,.9,1.53A1.31,1.31,0,0,1,63.65,18.2Z" />
    <ellipse cx="50.42" cy="20.97" rx="1.58" ry="1.59" />
    <ellipse cx="48.43" cy="16.34" rx="1.58" ry="1.59" />
    <ellipse cx="49.24" cy="10.99" rx="1.58" ry="1.59" />
</svg>