<svg x="0px" y="0px" width="62px" height="54px" xmlns="http://www.w3.org/2000/svg" viewBox="0 0 62 54" fill="#f3e2d4">
    <path d="M61.43,13.33a1,1,0,0,0-1.31.33c-4,5.18-14.87,6.28-15,6.28-0.7,0-1.25,1.19-1.64,1.77a1.17,1.17,0,0,0-1.42-.34c-11.42,5.76-11.55,14.1-11.22,17a33.08,33.08,0,0,0-4.63,7.45,1.17,1.17,0,0,0,.66,1.43,1,1,0,0,0,1.31-.55,34.32,34.32,0,0,1,4-6.44,32.82,32.82,0,0,0,5.25.49c2.62,0,5.47-.55,7-2a1.24,1.24,0,0,0,.32-0.88,6,6,0,0,0,2.41-.11c0.89-.28,4.49-4,5-4.63a1,1,0,0,0-.11-1.55,6.29,6.29,0,0,0,1.75-.44c2.24-2.14,3.93-6.39,4-6.61a1.32,1.32,0,0,0-.22-1.21,3.89,3.89,0,0,0,.77-0.66A29,29,0,0,0,62,14.54,1.1,1.1,0,0,0,61.43,13.33Zm-4.59,8.15-3,2.1a1.2,1.2,0,0,0-.44,1.32,1,1,0,0,0,1.09.77l0.66-.11a17.94,17.94,0,0,1-2.52,3.86c-1.09.11-3.71,0.38-4.7,0.44a1,1,0,0,0-1,.88A1.11,1.11,0,0,0,47.66,32l2.07,0.89a25.81,25.81,0,0,1-3.17,2.86c-1.53.22-4.26-.66-5.68-1.32a1.15,1.15,0,0,0-1.31.22,1.17,1.17,0,0,0-.11,1.32A6.52,6.52,0,0,0,41.54,38c-2,.8-5,0.78-7.75.35A58.86,58.86,0,0,1,50,25.45a1.11,1.11,0,0,0,.44-1.54,1.1,1.1,0,0,0-1.53-.44A62,62,0,0,0,33,35.86c0.27-3,1.8-7.55,8.2-11.18C41,25.67,40.88,26,40.88,26a1.27,1.27,0,0,0,.66,1.33,1.08,1.08,0,0,0,1.31-.45l3.06-4.62C47.77,22,54,21,58.59,18.07A28.56,28.56,0,0,1,56.84,21.48Z" />
    <path d="M37.16,19.83H23A1.1,1.1,0,0,0,23,22h14.2a1.1,1.1,0,0,0,1.1-1.11A1,1,0,0,0,37.16,19.83Zm5.47-5.51H23a1.1,1.1,0,0,0,0,2.21H42.63a1.1,1.1,0,0,0,1.09-1.11A1,1,0,0,0,42.63,14.32Zm0-5.51H23a1,1,0,0,0-1.1,1.1A1,1,0,0,0,23,11H42.63a1.1,1.1,0,0,0,1.09-1.11A1,1,0,0,0,42.63,8.81Z" />
    <path d="M53.56,36.91V47.38A6.47,6.47,0,0,1,47,54H6.78A6.59,6.59,0,0,1,0,47.38a1,1,0,0,1,1.1-1.1H8.75a1.1,1.1,0,0,1,0,2.2H2.3a4.32,4.32,0,0,0,4.48,3.31H6.89a3.4,3.4,0,0,0,2.84-1.1,5.94,5.94,0,0,0,1.2-3.86V6.61A4.4,4.4,0,0,0,6.56,2.2,4.45,4.45,0,0,0,2.3,5.51H8.75a1,1,0,0,1,1.09,1.1,1,1,0,0,1-1.09,1.1H1.1A1,1,0,0,1,0,6.61,6.46,6.46,0,0,1,6.56,0H46.89a6.46,6.46,0,0,1,6.56,6.61V15.2a1.1,1.1,0,1,1-2.19,0V6.61A4.4,4.4,0,0,0,46.89,2.2H11.51a6.61,6.61,0,0,1,1.61,4.41V46.83a8.33,8.33,0,0,1-1.38,5H47a4.4,4.4,0,0,0,4.37-4.41V36.91A1.1,1.1,0,1,1,53.56,36.91Z" />
</svg>