<svg x="0px" y="0px" width="72px" height="72px" xmlns="http://www.w3.org/2000/svg" viewBox="0 0 72 72" fill="#f9b030">
                <path class="cls-1" d="M53.14,56.16a1.26,1.26,0,0,1-1.3-.86,16.71,16.71,0,0,0-15.7-10.8H36A16.85,16.85,0,0,0,20.16,55.15a1.32,1.32,0,0,1-1.87.72,1.38,1.38,0,0,1-.86-1.3A0.87,0.87,0,0,1,17.57,54,19.61,19.61,0,0,1,36,41.47h0.14A19.55,19.55,0,0,1,54.43,54a3.27,3.27,0,0,1,.14.58,1.26,1.26,0,0,1-.86,1.3A0.69,0.69,0,0,1,53.14,56.16Z" />
                <path class="cls-1" d="M49,33.12a6.91,6.91,0,1,1,6.91-6.91A7,7,0,0,1,49,33.12Zm0-10.94a4,4,0,1,0,4,4A4.12,4.12,0,0,0,49,22.18Z" />
                <path class="cls-1" d="M23,33.12A6.91,6.91,0,1,1,30,26.21,7,7,0,0,1,23,33.12Zm0-10.94a4,4,0,1,0,4,4A4.12,4.12,0,0,0,23,22.18Z" />
                <path class="cls-1" d="M36,72A36,36,0,1,1,72,36,36,36,0,0,1,36,72ZM36,2.88A33.12,33.12,0,1,0,69.12,36,33.12,33.12,0,0,0,36,2.88Z" />
</svg>