<svg x="0px" y="0px" width="60px" height="72px" xmlns="http://www.w3.org/2000/svg" viewBox="0 0 60 72" fill="#f9b030">
                <path class="cls-1" d="M29.94,33.06a4.29,4.29,0,1,1,4.29-4.29A4.29,4.29,0,0,1,29.94,33.06Zm0-6.12a1.84,1.84,0,1,0,1.84,1.84A1.84,1.84,0,0,0,29.94,26.94Z" transform="translate(-5.69)" />
                <path class="cls-1" d="M36.06,3.67a4.83,4.83,0,0,1-3.67,4.74V19a1.22,1.22,0,0,1-2.45,0V8.41a4.83,4.83,0,0,1-3.67-4.74,1.22,1.22,0,0,1,2.45,0,2.45,2.45,0,0,0,4.9,0A1.22,1.22,0,1,1,36.06,3.67Z" transform="translate(-5.69)" />
                <circle class="cls-1" cx="25.47" cy="3.67" r="1.22" />
                <path class="cls-1" d="M34.84,52a1.22,1.22,0,1,1-2.45,0,2.45,2.45,0,0,0-4.9,0A1.22,1.22,0,1,1,25,52a4.83,4.83,0,0,1,3.69-4.75,0.6,0.6,0,0,1,0-.15v-11a1.22,1.22,0,1,1,2.45,0v11a0.6,0.6,0,0,1,0,.15A4.83,4.83,0,0,1,34.84,52Z" transform="translate(-5.69)" />
                <circle class="cls-1" cx="24.24" cy="52.04" r="1.22" />
                <path class="cls-1" d="M26.75,23.47A1.24,1.24,0,0,1,25.08,23L19.8,13.87a4.88,4.88,0,0,1-1.33.18,5.18,5.18,0,0,1-1.3-.17,4.91,4.91,0,0,1-3-2.25,1.23,1.23,0,1,1,2.13-1.22,2.42,2.42,0,0,0,1.48,1.11A2.42,2.42,0,0,0,20.55,8a1.23,1.23,0,0,1,2.13-1.22,5,5,0,0,1-.76,5.88l5.29,9.18A1.24,1.24,0,0,1,26.75,23.47Z" transform="translate(-5.69)" />
                <circle class="cls-1" cx="12.73" cy="9.18" r="1.22" />
                <path class="cls-1" d="M45.24,48.21a1.25,1.25,0,0,1-1.68-.45,2.42,2.42,0,0,0-1.48-1.11,2.42,2.42,0,0,0-2.76,3.56,1.23,1.23,0,0,1-2.13,1.22,5,5,0,0,1,.86-6,0.65,0.65,0,0,1-.12-0.15l-5.51-9.55a1.23,1.23,0,0,1,2.13-1.22l5.51,9.55a0.58,0.58,0,0,1,.07.18,5,5,0,0,1,2.57,0,4.87,4.87,0,0,1,3,2.25A1.24,1.24,0,0,1,45.24,48.21Z" transform="translate(-5.69)" />
                <circle class="cls-1" cx="35.75" cy="48.98" r="1.22" />
                <path class="cls-1" d="M24.39,25.84a1.24,1.24,0,0,1-1.68.45L13.6,21a5,5,0,0,1-3.54,1.47,4.86,4.86,0,0,1-2.41-.62,1.23,1.23,0,1,1,1.22-2.13A2.42,2.42,0,0,0,12.44,17a2.42,2.42,0,0,0-1.11-1.48,1.23,1.23,0,0,1,1.22-2.13,5,5,0,0,1,2.27,5.51l9.12,5.27A1.24,1.24,0,0,1,24.39,25.84Z" transform="translate(-5.69)" />
                <circle class="cls-1" cx="4.41" cy="17.63" r="1.22" />
                <path class="cls-1" d="M52.68,38a1.24,1.24,0,0,1-1.68.45,2.45,2.45,0,1,0-2.45,4.24,1.23,1.23,0,0,1-1.22,2.13,5,5,0,0,1-2.25-5.61l-0.07,0-9.55-5.51a1.23,1.23,0,1,1,1.22-2.13L46.22,37l0.09,0.06a5,5,0,0,1,5.91-.8A1.24,1.24,0,0,1,52.68,38Z" transform="translate(-5.69)" />
                <circle class="cls-1" cx="44.08" cy="40.53" r="1.22" />
                <path class="cls-1" d="M23.82,28.78A1.23,1.23,0,0,1,22.59,30H11.84A4.84,4.84,0,0,1,7,33.92a1.22,1.22,0,0,1,0-2.45,2.45,2.45,0,0,0,0-4.9,1.22,1.22,0,1,1,0-2.45,4.84,4.84,0,0,1,4.68,3.43H22.59A1.23,1.23,0,0,1,23.82,28.78Z" transform="translate(-5.69)" />
                <circle class="cls-1" cx="1.22" cy="29.02" r="1.22" />
                <path class="cls-1" d="M54.18,32.69A1.23,1.23,0,0,1,53,33.92,4.84,4.84,0,0,1,48.16,30H37.29a1.22,1.22,0,1,1,0-2.45h11A4.84,4.84,0,0,1,53,24.12a1.22,1.22,0,0,1,0,2.45,2.45,2.45,0,1,0,0,4.9A1.23,1.23,0,0,1,54.18,32.69Z" transform="translate(-5.69)" />
                <circle class="cls-1" cx="47.26" cy="29.02" r="1.22" />
                <path class="cls-1" d="M24.06,33.51l-9.36,5.4a5,5,0,0,1-2.16,5.87,1.23,1.23,0,0,1-1.22-2.13,2.42,2.42,0,0,0,1.11-1.48,2.42,2.42,0,0,0-3.56-2.76,1.23,1.23,0,0,1-1.22-2.13,5,5,0,0,1,5.67.59l9.51-5.49A1.23,1.23,0,1,1,24.06,33.51Z" transform="translate(-5.69)" />
                <circle class="cls-1" cx="4.41" cy="40.53" r="1.22" />
                <path class="cls-1" d="M65.69,9.64a4.85,4.85,0,0,1-2.4.62,5,5,0,0,1-3.76-1.69l-9.27,5.35A1.23,1.23,0,0,1,49,11.79l9.43-5.44A4.93,4.93,0,0,1,60.8,1.14,1.23,1.23,0,0,1,62,3.27a2.51,2.51,0,0,0-.89,3.34,2.51,2.51,0,0,0,3.34.89A1.23,1.23,0,0,1,65.69,9.64Z" transform="translate(-5.69)" />
                <circle class="cls-1" cx="57.55" cy="5.39" r="1.22" />
                <path class="cls-1" d="M50.6,5.51a4.91,4.91,0,0,1-3,2.25,5.18,5.18,0,0,1-1.3.17,4.61,4.61,0,0,1-1.58-.27L39.33,17A1.23,1.23,0,0,1,37.2,15.8l5.49-9.51A5,5,0,0,1,42.1.61a1.23,1.23,0,1,1,2.13,1.22,2.51,2.51,0,0,0,.89,3.34A2.49,2.49,0,0,0,47,5.4a2.42,2.42,0,0,0,1.48-1.11A1.23,1.23,0,1,1,50.6,5.51Z" transform="translate(-5.69)" />
                <circle class="cls-1" cx="40.65" cy="3.06" r="1.22" />
                <path class="cls-1" d="M13.65,72a1.22,1.22,0,0,1-1.22-1.22c0-23.63,11.39-35.05,11.88-35.53A1.22,1.22,0,0,1,26,37c-0.11.11-11.14,11.24-11.14,33.78A1.22,1.22,0,0,1,13.65,72Z" transform="translate(-5.69)" />
</svg>